<?xml version="1.0" encoding="UTF-8" standalone="no"?>
<svg
   version="1.1"
   id="OpenPath-Logo"
   x="0px"
   y="0px"
   viewBox="0 0 57.415118 57.579626"
   xml:space="preserve"
   sodipodi:docname="openpath-icon.svg"
   inkscape:version="1.1.1 (3bf5ae0d25, 2021-09-20)"
   width="57.415115"
   height="57.579628"
   xmlns:inkscape="http://www.inkscape.org/namespaces/inkscape"
   xmlns:sodipodi="http://sodipodi.sourceforge.net/DTD/sodipodi-0.dtd"
   xmlns="http://www.w3.org/2000/svg"
   xmlns:svg="http://www.w3.org/2000/svg"><style
   id="style14">
#path18 { 
    fill:#333740;
}
#path20 { fill:#0789d4; }
</style><defs
   id="defs25"><clipPath
     clipPathUnits="userSpaceOnUse"
     id="clipPath61"><rect
       style="fill:#0000ff;fill-rule:evenodd"
       id="rect63"
       width="57.579628"
       height="54.947418"
       x="0"
       y="0.98707938" /></clipPath><clipPath
     clipPathUnits="userSpaceOnUse"
     id="clipPath90"><ellipse
       style="fill:#ff0000;fill-rule:evenodd"
       id="ellipse92"
       cx="29.941408"
       cy="29.612381"
       rx="27.309196"
       ry="28.296274" /></clipPath></defs><sodipodi:namedview
   id="namedview23"
   pagecolor="#ffffff"
   bordercolor="#666666"
   borderopacity="1.0"
   inkscape:pageshadow="2"
   inkscape:pageopacity="0.0"
   inkscape:pagecheckerboard="0"
   showgrid="false"
   inkscape:zoom="12.157077"
   inkscape:cx="39.35979"
   inkscape:cy="27.350324"
   inkscape:window-width="1920"
   inkscape:window-height="1017"
   inkscape:window-x="-8"
   inkscape:window-y="-8"
   inkscape:window-maximized="1"
   inkscape:current-layer="g29"
   fit-margin-top="0"
   fit-margin-left="0"
   fit-margin-right="0"
   fit-margin-bottom="0" />
    
    
    
    
    
    
    
    
    <g
   id="g29"
   clip-path="url(#clipPath90)"
   transform="translate(-0.08225662,0.41128308)"><path
     class="open-text"
     d="M 29.9,2.87 C 19,2.87 9.66,9.54 5.74,19.02 h 14.32 c 2.53,-2.49 6.01,-4.04 9.84,-4.04 7.75,0 14.03,6.28 14.03,14.03 0,7.75 -6.28,14.03 -14.03,14.03 -3.93,0 -7.48,-1.62 -10.03,-4.22 H 5.67 C 9.55,48.4 18.94,55.15 29.9,55.15 44.34,55.15 56.05,43.44 56.05,29 56.05,14.58 44.34,2.87 29.9,2.87 Z"
     id="path18"
     style="" /><path
     class="path-text"
     d="m 29.9,19.2 c -3.21,0 -6.05,1.55 -7.84,3.93 H 10.31 4.43 c -0.44,1.89 -0.67,3.86 -0.67,5.89 0,1.98 0.23,3.9 0.64,5.75 h 5.91 11.65 c 1.78,2.46 4.67,4.06 7.94,4.06 5.42,0 9.81,-4.39 9.81,-9.81 0,-5.42 -4.39,-9.82 -9.81,-9.82 z"
     id="path20"
     style="" /></g>
</svg>
